#Comment line ignore any data following # character 
#Hierarchical Translation and Rotation (.htr) file 
[Header]	
#Header keywords are followed by a single value 
FileType HTR		#Single word string
DataType HTRS		#Translation followed by rotation and scale data
FileVersion 1		#integer
NumSegments 84		#integer
NumFrames 2		#integer
DataFrameRate 30		#integer, data frame rate in this file
EulerRotationOrder ZYX
CalibrationUnits mm
RotationUnits Degrees
GlobalAxisofGravity Y
BoneLengthAxis Y
ScaleFactor 1.00
[SegmentNames&Hierarchy]
#CHILD	PARENT
MASTER GLOBAL
root MASTER
chest root
L_mid_tent01 root
R_mid_tent01 root
spine01 root
Bip01_Neck chest
L_humerus chest
R_humerus chest
weapon_bone chest
Bip01_Head Bip01_Neck
eye_left_bone Bip01_Head
eye_right_bone Bip01_Head
L_forearm L_humerus
L_front_hand L_forearm
L_weapon_bone L_forearm
L_front_hand01_01 L_front_hand
L_front_hand02_01 L_front_hand
L_front_hand03_01 L_front_hand
L_front_hand01_02 L_front_hand01_01
L_front_hand02_02 L_front_hand02_01
L_front_hand03_02 L_front_hand03_01
R_forearm R_humerus
R_front_hand R_forearm
R_weapon_bone R_forearm
R_front_hand01_01 R_front_hand
R_front_hand02_01 R_front_hand
R_front_hand03_01 R_front_hand
R_front_hand01_02 R_front_hand01_01
R_front_hand02_02 R_front_hand02_01
R_front_hand03_02 R_front_hand03_01
null_rope01_connect L_mid_tent01
Rope1_Seg01 null_rope01_connect
Rope1_Seg02 Rope1_Seg01
Rope1_Seg03 Rope1_Seg02
Rope1_Seg04 Rope1_Seg03
Rope1_Seg05 Rope1_Seg04
Rope1_Seg06 Rope1_Seg05
Rope1_Seg07 Rope1_Seg06
Rope1_Seg09 Rope1_Seg07
L_mid_hand01 Rope1_Seg09
L_mid_hand02 Rope1_Seg09
L_mid_hand03 Rope1_Seg09
null_rope02_connect R_mid_tent01
Rope2_Seg01 null_rope02_connect
Rope2_Seg02 Rope2_Seg01
Rope2_Seg03 Rope2_Seg02
Rope2_Seg04 Rope2_Seg03
Rope2_Seg05 Rope2_Seg04
Rope2_Seg06 Rope2_Seg05
Rope2_Seg07 Rope2_Seg06
Rope2_Seg09 Rope2_Seg07
R_mid_hand01 Rope2_Seg09
R_mid_hand02 Rope2_Seg09
R_mid_hand03 Rope2_Seg09
spine02 spine01
spine03 spine02
pelvis spine03
null_rope03_connect pelvis
null_rope04_connect pelvis
Rope3_Seg01 null_rope03_connect
Rope3_Seg02 Rope3_Seg01
Rope3_Seg03 Rope3_Seg02
Rope3_Seg04 Rope3_Seg03
Rope3_Seg05 Rope3_Seg04
Rope3_Seg06 Rope3_Seg05
Rope3_Seg07 Rope3_Seg06
Rope3_Seg08 Rope3_Seg07
Rope3_Seg09 Rope3_Seg08
R_rear_hand01 Rope3_Seg09
R_rear_hand02 Rope3_Seg09
R_rear_hand03 Rope3_Seg09
Rope4_Seg01 null_rope04_connect
Rope4_Seg02 Rope4_Seg01
Rope4_Seg03 Rope4_Seg02
Rope4_Seg04 Rope4_Seg03
Rope4_Seg05 Rope4_Seg04
Rope4_Seg06 Rope4_Seg05
Rope4_Seg07 Rope4_Seg06
Rope4_Seg08 Rope4_Seg07
Rope4_Seg09 Rope4_Seg08
L_rear_hand01 Rope4_Seg09
L_rear_hand02 Rope4_Seg09
L_rear_hand03 Rope4_Seg09
[BasePosition]
#SegmentName Tx, Ty, Tz, Rx, Ry, Rz, BoneLength
MASTER 0.000000 0.000000 0.000000 -90.000000 0.000000 0.000000 10.000000 
root 0.000000 0.000000 0.000000 0.000000 0.000000 0.000000 10.000000 
chest 0.000000 0.000000 0.000000 0.000000 0.000000 0.000000 10.000000 
L_mid_tent01 0.000000 0.000000 0.000000 0.000000 0.000000 0.000000 10.000000 
R_mid_tent01 0.000000 0.000000 0.000000 0.000000 0.000000 0.000000 10.000000 
spine01 0.000000 0.000000 0.000000 0.000000 0.000000 0.000000 10.000000 
Bip01_Neck 0.000000 0.000000 0.000000 0.000000 0.000000 0.000000 10.000000 
L_humerus 0.000000 0.000000 0.000000 0.000000 0.000000 0.000000 10.000000 
R_humerus 0.000000 0.000000 0.000000 0.000000 0.000000 0.000000 10.000000 
weapon_bone 0.000000 0.000000 0.000000 0.000000 0.000000 0.000000 10.000000 
Bip01_Head 0.000000 0.000000 0.000000 0.000000 0.000000 0.000000 10.000000 
eye_left_bone 0.000000 0.000000 0.000000 0.000000 0.000000 0.000000 10.000000 
eye_right_bone 0.000000 0.000000 0.000000 0.000000 0.000000 0.000000 10.000000 
L_forearm 0.000000 0.000000 0.000000 0.000000 0.000000 0.000000 10.000000 
L_front_hand 0.000000 0.000000 0.000000 0.000000 0.000000 0.000000 10.000000 
L_weapon_bone 0.000000 0.000000 0.000000 0.000000 0.000000 0.000000 10.000000 
L_front_hand01_01 0.000000 0.000000 0.000000 0.000000 0.000000 0.000000 10.000000 
L_front_hand02_01 0.000000 0.000000 0.000000 0.000000 0.000000 0.000000 10.000000 
L_front_hand03_01 0.000000 0.000000 0.000000 0.000000 0.000000 0.000000 10.000000 
L_front_hand01_02 0.000000 0.000000 0.000000 0.000000 0.000000 0.000000 10.000000 
L_front_hand02_02 0.000000 0.000000 0.000000 0.000000 0.000000 0.000000 10.000000 
L_front_hand03_02 0.000000 0.000000 0.000000 0.000000 0.000000 0.000000 10.000000 
R_forearm 0.000000 0.000000 0.000000 0.000000 0.000000 0.000000 10.000000 
R_front_hand 0.000000 0.000000 0.000000 0.000000 0.000000 0.000000 10.000000 
R_weapon_bone 0.000000 0.000000 0.000000 0.000000 0.000000 0.000000 10.000000 
R_front_hand01_01 0.000000 0.000000 0.000000 0.000000 0.000000 0.000000 10.000000 
R_front_hand02_01 0.000000 0.000000 0.000000 0.000000 0.000000 0.000000 10.000000 
R_front_hand03_01 0.000000 0.000000 0.000000 0.000000 0.000000 0.000000 10.000000 
R_front_hand01_02 0.000000 0.000000 0.000000 0.000000 0.000000 0.000000 10.000000 
R_front_hand02_02 0.000000 0.000000 0.000000 0.000000 0.000000 0.000000 10.000000 
R_front_hand03_02 0.000000 0.000000 0.000000 0.000000 0.000000 0.000000 10.000000 
null_rope01_connect 0.000000 0.000000 0.000000 0.000000 0.000000 0.000000 10.000000 
Rope1_Seg01 0.000000 0.000000 0.000000 0.000000 0.000000 0.000000 10.000000 
Rope1_Seg02 0.000000 0.000000 0.000000 0.000000 0.000000 0.000000 10.000000 
Rope1_Seg03 0.000000 0.000000 0.000000 0.000000 0.000000 0.000000 10.000000 
Rope1_Seg04 0.000000 0.000000 0.000000 0.000000 0.000000 0.000000 10.000000 
Rope1_Seg05 0.000000 0.000000 0.000000 0.000000 0.000000 0.000000 10.000000 
Rope1_Seg06 0.000000 0.000000 0.000000 0.000000 0.000000 0.000000 10.000000 
Rope1_Seg07 0.000000 0.000000 0.000000 0.000000 0.000000 0.000000 10.000000 
Rope1_Seg09 0.000000 0.000000 0.000000 0.000000 0.000000 0.000000 10.000000 
L_mid_hand01 0.000000 0.000000 0.000000 0.000000 0.000000 0.000000 10.000000 
L_mid_hand02 0.000000 0.000000 0.000000 0.000000 0.000000 0.000000 10.000000 
L_mid_hand03 0.000000 0.000000 0.000000 0.000000 0.000000 0.000000 10.000000 
null_rope02_connect 0.000000 0.000000 0.000000 0.000000 0.000000 0.000000 10.000000 
Rope2_Seg01 0.000000 0.000000 0.000000 0.000000 0.000000 0.000000 10.000000 
Rope2_Seg02 0.000000 0.000000 0.000000 0.000000 0.000000 0.000000 10.000000 
Rope2_Seg03 0.000000 0.000000 0.000000 0.000000 0.000000 0.000000 10.000000 
Rope2_Seg04 0.000000 0.000000 0.000000 0.000000 0.000000 0.000000 10.000000 
Rope2_Seg05 0.000000 0.000000 0.000000 0.000000 0.000000 0.000000 10.000000 
Rope2_Seg06 0.000000 0.000000 0.000000 0.000000 0.000000 0.000000 10.000000 
Rope2_Seg07 0.000000 0.000000 0.000000 0.000000 0.000000 0.000000 10.000000 
Rope2_Seg09 0.000000 0.000000 0.000000 0.000000 0.000000 0.000000 10.000000 
R_mid_hand01 0.000000 0.000000 0.000000 0.000000 0.000000 0.000000 10.000000 
R_mid_hand02 0.000000 0.000000 0.000000 0.000000 0.000000 0.000000 10.000000 
R_mid_hand03 0.000000 0.000000 0.000000 0.000000 0.000000 0.000000 10.000000 
spine02 0.000000 0.000000 0.000000 0.000000 0.000000 0.000000 10.000000 
spine03 0.000000 0.000000 0.000000 0.000000 0.000000 0.000000 10.000000 
pelvis 0.000000 0.000000 0.000000 0.000000 0.000000 0.000000 10.000000 
null_rope03_connect 0.000000 0.000000 0.000000 0.000000 0.000000 0.000000 10.000000 
null_rope04_connect 0.000000 0.000000 0.000000 0.000000 0.000000 0.000000 10.000000 
Rope3_Seg01 0.000000 0.000000 0.000000 0.000000 0.000000 0.000000 10.000000 
Rope3_Seg02 0.000000 0.000000 0.000000 0.000000 0.000000 0.000000 10.000000 
Rope3_Seg03 0.000000 0.000000 0.000000 0.000000 0.000000 0.000000 10.000000 
Rope3_Seg04 0.000000 0.000000 0.000000 0.000000 0.000000 0.000000 10.000000 
Rope3_Seg05 0.000000 0.000000 0.000000 0.000000 0.000000 0.000000 10.000000 
Rope3_Seg06 0.000000 0.000000 0.000000 0.000000 0.000000 0.000000 10.000000 
Rope3_Seg07 0.000000 0.000000 0.000000 0.000000 0.000000 0.000000 10.000000 
Rope3_Seg08 0.000000 0.000000 0.000000 0.000000 0.000000 0.000000 10.000000 
Rope3_Seg09 0.000000 0.000000 0.000000 0.000000 0.000000 0.000000 10.000000 
R_rear_hand01 0.000000 0.000000 0.000000 0.000000 0.000000 0.000000 10.000000 
R_rear_hand02 0.000000 0.000000 0.000000 0.000000 0.000000 0.000000 10.000000 
R_rear_hand03 0.000000 0.000000 0.000000 0.000000 0.000000 0.000000 10.000000 
Rope4_Seg01 0.000000 0.000000 0.000000 0.000000 0.000000 0.000000 10.000000 
Rope4_Seg02 0.000000 0.000000 0.000000 0.000000 0.000000 0.000000 10.000000 
Rope4_Seg03 0.000000 0.000000 0.000000 0.000000 0.000000 0.000000 10.000000 
Rope4_Seg04 0.000000 0.000000 0.000000 0.000000 0.000000 0.000000 10.000000 
Rope4_Seg05 0.000000 0.000000 0.000000 0.000000 0.000000 0.000000 10.000000 
Rope4_Seg06 0.000000 0.000000 0.000000 0.000000 0.000000 0.000000 10.000000 
Rope4_Seg07 0.000000 0.000000 0.000000 0.000000 0.000000 0.000000 10.000000 
Rope4_Seg08 0.000000 0.000000 0.000000 0.000000 0.000000 0.000000 10.000000 
Rope4_Seg09 0.000000 0.000000 0.000000 0.000000 0.000000 0.000000 10.000000 
L_rear_hand01 0.000000 0.000000 0.000000 0.000000 0.000000 0.000000 10.000000 
L_rear_hand02 0.000000 0.000000 0.000000 0.000000 0.000000 0.000000 10.000000 
L_rear_hand03 0.000000 0.000000 0.000000 0.000000 0.000000 0.000000 10.000000 
#Beginning of Data. Separated by tabs
#Fr	Tx	Ty	Tz	Rx	Ry	Rz	SF
[MASTER]
61 -3114.251465 1069.643921 2662.402588 0.001660 0.001660 0.001660 4234.511719
62 -3250.088135 881.178223 2480.372070 0.001660 0.001660 0.001660 4182.319336
[root]
61 -157.701157 -62.822109 1500.115234 -60.561996 -39.863689 -125.235519 1509.689453
62 -123.299881 -62.822109 1500.106567 -60.572872 -36.455566 -123.446777 1506.475830
[chest]
61 -84.512650 -34.090519 0.000000 7.378007 -27.138632 139.754166 91.129311
62 -84.512650 -34.090519 0.000000 5.446177 -20.797110 150.470032 91.129311
[L_mid_tent01]
61 27.299585 22.177504 -249.918228 90.192703 32.994888 -178.687057 252.381119
62 27.299587 22.177504 -249.918228 88.581787 34.960796 178.953217 252.381119
[R_mid_tent01]
61 23.228794 24.509907 226.238495 163.069382 -26.879684 80.574059 228.744751
62 23.228794 24.509907 226.238495 163.372986 -27.060186 79.907806 228.744751
[spine01]
61 -0.361383 -0.195265 0.000000 0.001845 0.001451 13.654368 0.410763
62 -0.361383 -0.195265 0.000000 0.001845 0.001451 13.654368 0.410763
[Bip01_Neck]
61 165.484543 71.581718 0.000119 176.643677 -1.657967 43.431911 180.302734
62 165.484543 71.581718 0.000119 176.643677 -1.657967 43.431911 180.302734
[L_humerus]
61 -13.983130 -135.272980 -120.471481 -161.775818 36.470287 -66.923492 181.680161
62 -13.983130 -135.272980 -120.471481 -163.178925 33.938595 -68.511642 181.680161
[R_humerus]
61 -13.983309 -135.273102 125.287651 150.803513 -17.459190 -48.477531 184.909012
62 -13.983309 -135.273102 125.287651 153.682770 -16.114204 -52.234829 184.909012
[weapon_bone]
61 235.964890 -300.705902 0.000000 0.000000 -89.951546 -128.212341 382.234833
62 235.964890 -300.705902 0.000000 0.000000 -89.951546 -128.212341 382.234833
[Bip01_Head]
61 213.442093 185.720535 11.709928 -1.540127 -5.067593 38.109917 283.172668
62 213.442139 185.720413 11.711349 -2.380882 -5.427343 37.030415 283.172699
[eye_left_bone]
61 -24.626970 125.451866 -64.772606 0.000000 -90.000000 -99.840431 143.318359
62 -24.626970 125.451866 -64.772606 0.000000 -90.000000 -99.840431 143.318359
[eye_right_bone]
61 -24.626970 125.451866 64.327362 0.000000 -89.965736 80.156380 143.117676
62 -24.626970 125.451866 64.327362 0.000000 -89.965736 80.156380 143.117676
[L_forearm]
61 322.776093 0.000000 -0.000119 0.000119 -0.002344 -95.807457 322.776093
62 322.776093 0.000000 -0.000119 0.000119 -0.002344 -95.807457 322.776093
[L_front_hand]
61 241.149185 -0.042021 -3.300071 149.893951 -1.837325 -27.423061 241.171753
62 241.149185 -0.042021 -3.300071 149.893951 -1.837326 -27.423067 241.171753
[L_weapon_bone]
61 156.183838 0.000000 0.000000 0.000014 0.000007 0.000001 156.183838
62 156.183838 0.000000 0.000000 0.000014 0.000007 0.000001 156.183838
[L_front_hand01_01]
61 86.095154 20.947098 -0.655860 -0.366594 -0.477154 75.385574 88.609184
62 86.095154 20.947098 -0.655860 -0.366594 -0.477154 75.385574 88.609184
[L_front_hand02_01]
61 86.935165 -11.437475 24.513514 154.399796 -59.883835 -61.369587 91.046425
62 86.935165 -11.437475 24.513514 154.399796 -59.883835 -61.369587 91.046425
[L_front_hand03_01]
61 86.637497 -14.123976 -20.424902 -153.913849 58.118122 -62.702866 90.126129
62 86.637497 -14.123976 -20.424902 -153.913849 58.118122 -62.702866 90.126129
[L_front_hand01_02]
61 71.020905 -0.000179 0.000030 0.000334 -0.002323 -106.379684 71.020905
62 71.020905 -0.000179 0.000030 0.000334 -0.002323 -106.379684 71.020905
[L_front_hand02_02]
61 71.020927 -0.000119 0.000060 0.000334 -0.002323 -106.379684 71.020927
62 71.020927 -0.000119 0.000060 0.000334 -0.002323 -106.379684 71.020927
[L_front_hand03_02]
61 71.020905 -0.000060 0.000060 0.000334 -0.002323 -106.379684 71.020905
62 71.020905 -0.000060 0.000060 0.000334 -0.002323 -106.379684 71.020905
[R_forearm]
61 322.776428 -0.000060 0.000030 0.144606 -0.159024 -43.238674 322.776428
62 322.776428 -0.000060 0.000030 0.143718 -0.159826 -42.600975 322.776428
[R_front_hand]
61 238.847015 -0.006795 2.210259 -8.879457 -10.642941 -26.315098 238.857239
62 238.847015 -0.006795 2.210259 -8.879457 -10.642941 -26.315098 238.857239
[R_weapon_bone]
61 155.664093 0.002503 -0.000030 0.003487 0.001180 -90.988930 155.664078
62 155.664093 0.002503 -0.000030 0.003487 0.001180 -90.988930 155.664078
[R_front_hand01_01]
61 87.624611 14.231146 22.918642 -154.633499 -59.950619 61.746044 91.683487
62 87.624611 14.231146 22.918642 -154.633499 -59.950619 61.746044 91.683487
[R_front_hand02_01]
61 89.356956 14.367283 -19.491137 154.602661 58.302849 63.744389 92.579636
62 89.356956 14.367283 -19.491137 154.602661 58.302849 63.744389 92.579636
[R_front_hand03_01]
61 87.286232 -22.307278 -0.143439 0.162155 -0.423168 -75.767921 90.091743
62 87.286232 -22.307278 -0.143439 0.162155 -0.423168 -75.767921 90.091743
[R_front_hand01_02]
61 71.020905 0.000060 0.000119 0.002323 -0.000334 106.381714 71.020905
62 71.020905 0.000060 0.000119 0.002323 -0.000334 106.381714 71.020905
[R_front_hand02_02]
61 71.020844 -0.000030 -0.000119 0.002323 -0.000334 106.381714 71.020836
62 71.020844 -0.000030 -0.000119 0.002323 -0.000334 106.381714 71.020836
[R_front_hand03_02]
61 71.020905 0.000000 0.000030 0.002323 -0.000334 106.381714 71.020905
62 71.020905 0.000000 0.000030 0.002323 -0.000334 106.381714 71.020905
[null_rope01_connect]
61 328.732483 0.000000 -0.000238 -133.271454 -4.944329 96.714294 328.732483
62 328.732483 0.000000 -0.000238 -134.179367 -8.094303 98.333801 328.732483
[Rope1_Seg01]
61 0.000000 0.000000 0.000000 -95.163338 35.045635 -111.725708 0.000000
62 0.000000 0.000000 0.000000 -13.076662 20.621803 -111.957825 0.000000
[Rope1_Seg02]
61 139.999863 -0.000179 0.000000 -30.044630 -9.850031 63.145859 139.999863
62 139.999863 -0.000179 0.000000 -99.525505 25.431547 5.757945 139.999863
[Rope1_Seg03]
61 139.999924 0.000060 -0.000060 -3.679025 -15.823597 25.791502 139.999924
62 139.999924 0.000060 -0.000060 -21.461758 -19.854767 55.304913 139.999924
[Rope1_Seg04]
61 139.999924 -0.000060 -0.000119 2.549752 -8.595450 22.034849 139.999924
62 139.999924 -0.000060 -0.000119 -2.890526 -14.694201 24.281513 139.999924
[Rope1_Seg05]
61 139.999832 0.000119 -0.000060 3.712787 -3.312771 10.110506 139.999832
62 139.999832 0.000119 -0.000060 1.270483 -7.859092 15.744906 139.999832
[Rope1_Seg06]
61 139.999954 0.000119 -0.000060 2.649641 -1.377202 5.017781 139.999954
62 139.999954 0.000119 -0.000060 1.931260 -4.040235 8.449518 139.999954
[Rope1_Seg07]
61 139.999985 0.000060 0.000000 2.026073 -0.701600 3.110925 139.999985
62 139.999985 0.000060 0.000000 1.557357 -2.061007 4.610210 139.999985
[Rope1_Seg09]
61 121.602913 0.000119 -0.000089 -89.793175 -1.359789 0.847147 121.602913
62 121.602913 0.000119 -0.000089 -89.793175 -1.359789 0.847147 121.602913
[L_mid_hand01]
61 103.859421 1.038730 8.195221 130.544373 -67.584534 -38.866943 104.187431
62 103.859421 1.038730 8.195221 130.544373 -67.584534 -38.866943 104.187431
[L_mid_hand02]
61 105.572853 -4.139662 -10.864139 -168.923172 43.409309 -73.498886 106.211075
62 105.572853 -4.139662 -10.864139 -168.923172 43.409309 -73.498886 106.211075
[L_mid_hand03]
61 104.641464 17.579376 -3.913581 -6.012627 17.808174 74.893669 106.179977
62 104.641464 17.579376 -3.913581 -6.012627 17.808174 74.893669 106.179977
[null_rope02_connect]
61 328.732849 0.000179 -0.000119 -139.465546 62.942856 -25.964344 328.732849
62 328.732849 0.000179 -0.000119 -141.978287 60.337959 -26.237701 328.732849
[Rope2_Seg01]
61 0.000205 0.000238 0.000000 -30.780855 -20.337555 8.002559 0.000314
62 0.000207 0.000240 0.000000 -23.411385 -23.237015 -0.783640 0.000316
[Rope2_Seg02]
61 139.999741 -0.000060 -0.000119 -6.823507 -0.073248 18.451809 139.999756
62 139.999741 -0.000060 -0.000119 -7.677607 0.323347 16.398565 139.999756
[Rope2_Seg03]
61 140.000107 0.000030 0.000000 -4.017635 -3.131208 18.949038 140.000107
62 140.000107 0.000030 0.000000 -5.870946 -2.699097 19.677328 140.000107
[Rope2_Seg04]
61 139.999802 0.000000 -0.000060 -0.884096 -3.569231 13.649131 139.999802
62 139.999802 0.000000 -0.000060 -2.233628 -5.063229 16.606224 139.999802
[Rope2_Seg05]
61 139.999985 -0.000060 0.000119 0.743421 1.233372 10.728606 139.999985
62 139.999985 -0.000060 0.000119 0.245472 -0.196770 11.385201 139.999985
[Rope2_Seg06]
61 139.999893 -0.000030 -0.000119 1.562311 3.917365 11.421872 139.999893
62 139.999893 -0.000030 -0.000119 1.269151 3.470290 11.275811 139.999893
[Rope2_Seg07]
61 139.999893 0.000060 -0.000060 1.208324 2.076560 8.802782 139.999893
62 139.999893 0.000060 -0.000060 1.180948 1.943295 9.515304 139.999893
[Rope2_Seg09]
61 121.338966 0.000089 -0.000060 33.793236 -1.359788 -0.847141 121.338966
62 121.338966 0.000089 -0.000060 33.793236 -1.359788 -0.847141 121.338966
[R_mid_hand01]
61 104.680779 11.144459 -10.335981 -16.212063 45.237247 70.462852 105.778534
62 104.680779 11.144459 -10.335981 -16.212063 45.237247 70.462852 105.778534
[R_mid_hand02]
61 104.070427 2.443552 8.231699 49.067368 -67.749771 39.286453 104.424065
62 104.070427 2.443552 8.231699 49.067368 -67.749771 39.286453 104.424065
[R_mid_hand03]
61 106.028137 -11.221827 -5.996406 -177.101105 15.551026 -76.585571 106.788818
62 106.028137 -11.221827 -5.996406 -177.101105 15.551026 -76.585571 106.788818
[spine02]
61 129.756927 0.001550 0.000119 -1.023899 -3.926965 6.770993 129.756927
62 129.756927 0.001550 0.000119 -1.023899 -3.926965 6.770993 129.756927
[spine03]
61 78.613762 0.087366 -4.898765 1.040681 4.146420 4.212376 78.766296
62 78.613762 0.087367 -4.898763 1.040681 4.146420 4.212376 78.766296
[pelvis]
61 169.435242 0.051022 0.000000 0.019518 -0.190233 -10.721436 169.435257
62 169.435242 0.051022 0.000000 0.019518 -0.190233 -10.721436 169.435257
[null_rope03_connect]
61 -1.257226 -2.466202 137.391083 -33.667870 -63.327160 156.584320 137.418976
62 -1.257226 -2.466202 137.391083 -31.531607 -62.673401 151.019821 137.418976
[null_rope04_connect]
61 -1.259640 -2.480268 -137.844437 -33.667870 -63.327160 156.584320 137.872513
62 -1.259640 -2.480268 -137.844437 -31.531607 -62.673401 151.019821 137.872513
[Rope3_Seg01]
61 -0.000008 0.000052 -0.000153 -110.037567 -52.896244 -111.640327 0.000161
62 -0.000008 0.000054 -0.000153 -112.624626 -49.044590 -108.893051 0.000162
[Rope3_Seg02]
61 139.999924 -0.000119 0.000060 -3.404502 1.220956 -34.615143 139.999924
62 139.999924 -0.000119 0.000060 -3.467443 2.322975 -34.753551 139.999924
[Rope3_Seg03]
61 139.999924 -0.000119 0.000119 -1.409073 -8.466186 -20.623896 139.999924
62 139.999924 -0.000119 0.000119 -1.653792 -7.985313 -20.753220 139.999924
[Rope3_Seg04]
61 139.999924 0.000119 0.000000 -10.654943 7.759372 -6.959090 139.999924
62 139.999924 0.000119 0.000000 -10.461578 8.072867 -7.089594 139.999924
[Rope3_Seg05]
61 139.999924 -0.000238 0.000060 -12.728611 26.322418 2.410655 139.999924
62 139.999924 -0.000238 0.000060 -12.527329 27.043053 2.089853 139.999924
[Rope3_Seg06]
61 139.999893 -0.000119 -0.000060 -2.145320 19.579817 7.045606 139.999893
62 139.999893 -0.000119 -0.000060 -1.916594 20.015202 6.770204 139.999893
[Rope3_Seg07]
61 139.999771 0.000060 -0.000119 0.203056 8.498790 2.709913 139.999771
62 139.999771 0.000060 -0.000119 0.346501 8.609746 2.537557 139.999771
[Rope3_Seg08]
61 139.999985 -0.000060 0.000000 0.606597 4.669243 1.481690 139.999985
62 139.999985 -0.000060 0.000000 0.691418 4.703456 1.366572 139.999985
[Rope3_Seg09]
61 90.185997 -0.000179 -0.000060 89.793228 -1.359877 -0.847183 90.185997
62 90.185997 -0.000179 -0.000060 89.793228 -1.359877 -0.847183 90.185997
[R_rear_hand01]
61 103.366196 -6.073594 -10.757982 -177.714203 24.565960 -73.910950 104.101845
62 103.366196 -6.073594 -10.757982 -177.714203 24.565960 -73.910950 104.101845
[R_rear_hand02]
61 100.509819 12.039542 -7.992327 -12.874829 36.868488 72.167213 101.543350
62 100.509819 12.039542 -7.992327 -12.874829 36.868488 72.167213 101.543350
[R_rear_hand03]
61 101.539970 5.215704 5.435467 71.484581 -71.816628 21.513813 101.819031
62 101.539970 5.215704 5.435467 71.484581 -71.816628 21.513813 101.819031
[Rope4_Seg01]
61 0.000000 0.000086 0.000000 70.895432 -24.818115 -153.342422 0.000086
62 0.000000 0.000087 0.000000 59.189949 -17.221151 -144.791229 0.000087
[Rope4_Seg02]
61 139.999985 0.000060 0.000119 60.673679 -34.715237 9.655525 139.999985
62 139.999985 0.000060 0.000119 39.024239 -35.404377 -7.549830 139.999985
[Rope4_Seg03]
61 139.999924 0.000000 -0.000238 38.774261 -1.322721 35.886478 139.999924
62 139.999924 0.000000 -0.000238 89.904442 -31.468410 28.111380 139.999924
[Rope4_Seg04]
61 139.999985 0.000000 0.000119 15.038879 -1.256834 24.205128 139.999985
62 139.999985 0.000000 0.000119 17.042784 1.018775 18.719435 139.999985
[Rope4_Seg05]
61 139.999802 -0.000060 -0.000119 5.257184 -1.069862 10.955958 139.999802
62 139.999802 -0.000060 -0.000119 8.576461 -3.689814 9.322935 139.999802
[Rope4_Seg06]
61 139.999924 0.000000 0.000060 1.497207 0.789028 3.747032 139.999924
62 139.999924 0.000000 0.000060 2.650388 0.047121 3.382048 139.999924
[Rope4_Seg07]
61 139.999802 0.000000 0.000000 0.908476 0.567065 2.311099 139.999802
62 139.999802 0.000000 0.000000 1.397576 0.359437 1.895527 139.999802
[Rope4_Seg08]
61 139.999924 0.000000 0.000119 -1.027776 0.360168 1.368481 139.999924
62 139.999924 0.000000 0.000119 -0.732916 0.241334 1.127774 139.999924
[Rope4_Seg09]
61 90.185791 0.000060 0.000060 -135.617828 2.228885 0.850567 90.185791
62 90.185791 0.000060 0.000060 -135.617828 2.228885 0.850567 90.185791
[L_rear_hand01]
61 101.696655 -8.392275 -7.654577 -12.874834 -36.868492 107.832779 102.329041
62 101.696655 -8.392275 -7.654577 -12.874829 -36.868488 107.832764 102.329041
[L_rear_hand02]
61 102.726799 -1.568258 5.773216 71.484596 71.816643 158.486160 102.900848
62 102.726799 -1.568258 5.773216 71.484581 71.816628 158.486160 102.900848
[L_rear_hand03]
61 104.552910 9.721220 -10.420293 -177.714203 -24.565960 -106.089035 105.519653
62 104.552910 9.721220 -10.420293 -177.714203 -24.565960 -106.089035 105.519653
